<svg width="80" height="18" viewBox="0 0 80 18" fill="none" xmlns="http://www.w3.org/2000/svg">
<g clip-path="url(#clip0_161_3719)">
<path d="M3.99115 8.23065C3.339 8.22959 2.93163 7.53316 3.25678 6.97517L6.10322 2.09037C7.70039 -0.650564 11.7059 -0.653821 13.3076 2.08452C14.9094 4.82285 12.9038 8.24512 9.7003 8.23992L3.99115 8.23065Z" fill="#3D12FA"/>
<path d="M14.1392 6.11211C14.4659 5.55359 15.2826 5.55359 15.6093 6.11211L18.4664 10.9965C20.0629 13.7259 18.0673 17.1377 14.8742 17.1377C11.6812 17.1377 9.68559 13.7259 11.2821 10.9966L14.1392 6.11211Z" fill="#704EFA"/>
<path d="M10.8552 10.2086C11.1819 9.65003 10.7735 8.95188 10.1201 8.95188H4.40599C1.21298 8.95188 -0.782661 12.3636 0.813847 15.093C2.41036 17.8224 6.40163 17.8224 7.99814 15.093L10.8552 10.2086Z" fill="#5E76FC"/>
<path d="M75.8991 6.51321C77.8058 6.51321 79.1122 7.73029 79.1122 9.58837V13.8103C79.1122 14.109 78.87 14.3512 78.5713 14.3512H78.4441C78.1454 14.3512 77.9032 14.109 77.9032 13.8103V9.98595C77.9032 8.52545 77.0918 7.66538 75.68 7.66538C74.3899 7.66538 73.327 8.55791 73.327 10.0184V13.8103C73.327 14.109 73.0848 14.3512 72.7861 14.3512H72.6589C72.3602 14.3512 72.118 14.109 72.118 13.8103V9.98595C72.118 8.52545 71.3066 7.66538 69.9029 7.66538C68.6128 7.66538 67.5499 8.55791 67.5499 10.0184V13.8103C67.5499 14.109 67.3077 14.3512 67.009 14.3512H66.8737C66.575 14.3512 66.3328 14.109 66.3328 13.8103V7.20829C66.3328 6.90955 66.575 6.66737 66.8737 6.66737H66.9927C67.2915 6.66737 67.5337 6.90955 67.5337 7.20829V7.76274C68.1584 6.84587 69.1808 6.51321 70.122 6.51321C71.4608 6.51321 72.5075 7.12175 73.0024 8.12787C73.6191 6.93513 74.8199 6.51321 75.8991 6.51321Z" fill="black"/>
<path d="M63.5862 6.66718C63.885 6.66718 64.1272 6.90936 64.1272 7.20811V11.146C64.1272 13.4261 62.4882 14.5052 60.6382 14.5052C58.7801 14.5052 57.1492 13.4261 57.1492 11.146V7.20811C57.1492 6.90936 57.3914 6.66718 57.6901 6.66718H57.8173C58.116 6.66718 58.3582 6.90936 58.3582 7.20811V11.0325C58.3582 12.6228 59.3237 13.3693 60.6382 13.3693C61.9526 13.3693 62.9101 12.6228 62.9101 11.0325V7.20811C62.9101 6.90936 63.1523 6.66718 63.451 6.66718H63.5862Z" fill="black"/>
<path d="M54.3991 6.6674C54.6978 6.6674 54.94 6.90958 54.94 7.20833V13.8103C54.94 14.1091 54.6978 14.3513 54.3991 14.3513H54.2638C53.9651 14.3513 53.7229 14.1091 53.7229 13.8103V7.20833C53.7229 6.90958 53.9651 6.6674 54.2638 6.6674H54.3991ZM54.3315 3.08106C54.8102 3.08106 55.1915 3.4543 55.1915 3.94114C55.1915 4.42797 54.8102 4.79309 54.3315 4.79309C53.8446 4.79309 53.4795 4.42797 53.4795 3.94114C53.4795 3.4543 53.8446 3.08106 54.3315 3.08106Z" fill="black"/>
<path d="M51.3406 6.66718C51.7943 6.66718 52.0465 7.19211 51.7629 7.54625L49.4647 10.4158L51.8687 13.476C52.1475 13.8309 51.8947 14.351 51.4433 14.351H51.3314C51.167 14.351 51.0115 14.2763 50.9089 14.1479L48.6452 11.3164L46.4059 14.1458C46.3034 14.2754 46.1471 14.351 45.9818 14.351H45.936C45.4847 14.351 45.2319 13.831 45.5105 13.4761L47.9069 10.4239L45.6069 7.5458C45.3238 7.19158 45.576 6.66718 46.0294 6.66718H46.1289C46.2936 6.66718 46.4494 6.74223 46.552 6.87106L48.7101 9.58007L50.8764 6.87034C50.9791 6.74194 51.1345 6.66718 51.2989 6.66718H51.3406Z" fill="black"/>
<path d="M40.9342 6.51321C43.0195 6.51321 44.5287 8.1441 44.5449 10.4809C44.5449 10.7405 44.3249 10.9353 44.0653 10.9353H38.3621C38.5325 12.5905 39.6928 13.4425 41.0803 13.4425C41.8251 13.4425 42.4949 13.2177 43.0664 12.831C43.3218 12.6581 43.6768 12.6839 43.8672 12.9266C44.0354 13.1411 44.0157 13.4514 43.8004 13.6185C42.9383 14.2878 41.9945 14.5054 41.0072 14.5054C38.7354 14.5054 37.1207 12.8907 37.1207 10.5134C37.1207 8.16032 38.7435 6.51321 40.9342 6.51321ZM40.9099 7.59235C39.49 7.59235 38.5731 8.56602 38.3783 9.95349H43.3116C43.1574 8.51734 42.2162 7.59235 40.9099 7.59235Z" fill="black"/>
<path d="M34.8655 2.66748C35.1642 2.66748 35.4064 2.90966 35.4064 3.20841V13.8106C35.4064 14.1093 35.1642 14.3515 34.8655 14.3515H34.7303C34.4315 14.3515 34.1893 14.1093 34.1893 13.8106V3.20841C34.1893 2.90966 34.4315 2.66748 34.7303 2.66748H34.8655Z" fill="black"/>
<path d="M31.3485 6.66732C31.6472 6.66732 31.8894 6.9095 31.8894 7.20825V13.8103C31.8894 14.109 31.6472 14.3512 31.3485 14.3512H31.2214C30.9226 14.3512 30.6804 14.109 30.6804 13.8102V13.2071C30.0719 13.9942 29.1388 14.5053 27.873 14.5053C25.7147 14.5053 24.0352 12.8176 24.0352 10.5052C24.0352 8.20085 25.7147 6.51316 27.873 6.51316C29.1388 6.51316 30.0719 7.03245 30.6804 7.81138V7.20825C30.6804 6.9095 30.9226 6.66732 31.2214 6.66732H31.3485ZM28.0191 7.6491C26.372 7.6491 25.2685 8.92298 25.2685 10.5052C25.2685 12.0955 26.3882 13.3694 28.0191 13.3694C29.6175 13.3694 30.7535 12.1361 30.7535 10.5052C30.7535 8.88241 29.6175 7.6491 28.0191 7.6491Z" fill="black"/>
</g>
<defs>
<clipPath id="clip0_161_3719">
<rect width="78.8604" height="17.1073" fill="white" transform="translate(0.251953 0.0327148)"/>
</clipPath>
</defs>
</svg>
