<svg width="18" height="18" viewBox="0 0 18 18" fill="none" xmlns="http://www.w3.org/2000/svg">
<path d="M16.1198 6.69658C15.2071 3.78764 12.4043 1.74355 9.32019 1.75984C5.4868 1.6905 2.13846 5.06276 2.20407 8.88768C2.1399 12.6911 5.44835 16.0423 9.24884 16.0155C9.80417 16.0838 10.078 15.3325 9.59644 15.0395C8.5409 14.0813 7.74886 12.8779 7.3034 11.5538C7.29098 11.5176 7.28263 11.4801 7.27072 11.4437H9.28095C9.56943 11.4437 9.80286 11.2103 9.80286 10.9218C9.80286 10.6333 9.56943 10.3999 9.28095 10.3999H7.00568C6.9141 9.9056 6.86304 9.40211 6.86304 8.89125C6.86304 8.3773 6.91417 7.87154 7.00594 7.37547H11.6375C11.6767 7.59855 11.7101 7.82475 11.731 8.05538C11.7559 8.32602 11.9833 8.52989 12.2503 8.52989C12.2661 8.52989 12.2819 8.52938 12.2982 8.52785C12.5852 8.50186 12.7967 8.24753 12.7707 7.96058C12.7527 7.76349 12.7276 7.56832 12.6979 7.37547H15.2303C15.3584 7.8632 15.4261 8.36969 15.4261 8.88768C15.4261 9.36168 15.3691 9.84537 15.2569 10.325C15.1912 10.6053 15.3655 10.8861 15.6463 10.9519C15.9251 11.0161 16.2075 10.8433 16.2732 10.5625C16.4037 10.0054 16.47 9.4417 16.47 8.88768C16.47 8.1303 16.3512 7.39025 16.1198 6.69658ZM14.0877 5.08702C14.3985 5.47039 14.652 5.88807 14.8561 6.33165H12.4625C12.4216 6.18553 12.3887 6.0432 12.339 5.89384C11.9804 4.82574 11.4264 3.83369 10.7181 2.96262C12.0375 3.26852 13.2224 4.00599 14.0877 5.08702ZM4.58784 5.08447C5.44798 4.01023 6.62314 3.27696 7.94346 2.9686C7.23138 3.83426 6.67516 4.82049 6.31564 5.88313C6.26503 6.03072 6.22543 6.18171 6.18249 6.33165H3.81749C4.02123 5.88925 4.2754 5.47033 4.58784 5.08447ZM6.31513 11.8897C6.67178 12.9496 7.22956 13.9386 7.94703 14.8109C6.63391 14.5039 5.45101 13.767 4.58631 12.6889C4.27528 12.3049 4.02197 11.8871 3.81794 11.4437H6.18262C6.2254 11.5928 6.26474 11.7429 6.31513 11.8897ZM5.94167 10.3999H3.44374C3.31565 9.91217 3.24789 9.40567 3.24789 8.88768C3.24789 8.37125 3.31523 7.86603 3.44386 7.37547H5.94189C5.86079 7.87263 5.81922 8.37893 5.81922 8.89125C5.81922 9.40064 5.86076 9.90465 5.94167 10.3999ZM7.30391 6.21952C7.71649 4.99913 8.41692 3.89074 9.33797 2.98507C10.2474 3.89501 10.9398 5.00604 11.3492 6.22513C11.3614 6.26154 11.3677 6.29546 11.3792 6.33165H7.27062C7.28273 6.29457 7.29126 6.25644 7.30391 6.21952Z" fill="#3D12FA"/>
<path d="M15.7424 11.6556L11.8785 8.95023C11.5992 8.75502 11.2486 8.72495 10.9412 8.86817C10.6329 9.0119 10.431 9.29986 10.401 9.63982L9.99016 14.3385C9.95398 14.7504 10.1762 15.1219 10.5559 15.285C10.9361 15.4496 11.3571 15.3543 11.6318 15.0455L11.931 14.7081L12.0348 14.9308C12.0349 14.9309 12.0349 14.9311 12.035 14.9313C12.0349 14.9312 12.0351 14.9314 12.035 14.9313L12.4539 15.8299C12.6135 16.1718 12.9534 16.3732 13.3087 16.3732C13.4417 16.3732 13.5768 16.3446 13.7052 16.285L14.8459 15.7529C15.0737 15.6469 15.2465 15.4578 15.3326 15.2213C15.4182 14.9853 15.407 14.7295 15.301 14.5016L14.7781 13.3803L15.2286 13.3681C15.642 13.3564 15.9855 13.0934 16.1043 12.6974C16.223 12.3014 16.0808 11.8926 15.7424 11.6556Z" fill="#3D12FA"/>
</svg>
