<svg width="17" height="16" viewBox="0 0 17 16" fill="none" xmlns="http://www.w3.org/2000/svg">
<path d="M13.9586 11.7795C13.9586 11.7795 13.2312 12.4939 13.053 12.7033C12.7626 13.0132 12.4205 13.1595 11.972 13.1595C11.9289 13.1595 11.8829 13.1595 11.8398 13.1566C10.9859 13.1021 10.1924 12.7693 9.5973 12.4853C7.97009 11.6992 6.54124 10.5831 5.3539 9.16864C4.37354 7.98946 3.71806 6.89921 3.28394 5.72864C3.01657 5.01424 2.91882 4.45764 2.96195 3.9326C2.9907 3.59692 3.12007 3.31862 3.35869 3.08049L4.33904 2.10214C4.47991 1.97016 4.62941 1.89844 4.77603 1.89844C4.95715 1.89844 5.10378 2.00746 5.19577 2.09927C5.19865 2.10214 5.20152 2.10501 5.2044 2.10788C5.37977 2.27142 5.54652 2.44069 5.72189 2.62144C5.81101 2.71325 5.90301 2.80506 5.99501 2.89974L6.77986 3.68299C7.08461 3.98711 7.08461 4.26828 6.77986 4.5724C6.69649 4.65561 6.61599 4.73881 6.53262 4.81914C6.29112 5.06588 6.48083 4.87656 6.23071 5.10035C6.22496 5.10609 6.21921 5.10895 6.21634 5.11469C5.96909 5.36143 6.01509 5.60243 6.06684 5.76597C6.06972 5.77458 6.07259 5.78318 6.07547 5.79179C6.27959 6.28527 6.56708 6.75006 7.00407 7.30379L7.00695 7.30666C7.80043 8.28214 8.63703 9.04244 9.55989 9.62486C9.67776 9.69945 9.79851 9.7597 9.91351 9.81708C10.017 9.86873 10.1148 9.9175 10.1981 9.96914C10.2096 9.97488 10.2211 9.98349 10.2326 9.98923C10.3304 10.038 10.4224 10.061 10.5172 10.061C10.7559 10.061 10.9054 9.91176 10.9542 9.86299L11.5178 9.30062C11.6155 9.20307 11.7708 9.08544 11.9519 9.08544C12.1301 9.08544 12.2767 9.19733 12.3659 9.29488C12.3687 9.29775 12.3687 9.29775 12.3716 9.30062L13.9557 10.8815C14.2518 11.1741 13.9586 11.7795 13.9586 11.7795Z" stroke="#3D12FA" stroke-width="1.25551" stroke-linecap="round" stroke-linejoin="round"/>
</svg>
