<svg width="26" height="26" viewBox="0 0 26 26" fill="none" xmlns="http://www.w3.org/2000/svg">
<rect x="0.678711" y="0.178711" width="24.5091" height="25.1541" rx="12.2546" fill="#3D12FA"/>
<g clip-path="url(#clip0_18_509)">
<path d="M18.7276 10.4971C18.7019 9.91447 18.6077 9.51395 18.4727 9.16688C18.3335 8.79849 18.1193 8.46866 17.8387 8.19447C17.5645 7.91602 17.2325 7.69965 16.8684 7.5626C16.5193 7.42764 16.1209 7.33343 15.5383 7.30774C14.9513 7.27988 14.765 7.27344 13.2763 7.27344C11.7877 7.27344 11.6014 7.27988 11.0166 7.30557C10.434 7.33125 10.0335 7.42555 9.6865 7.56042C9.31802 7.69965 8.98819 7.91385 8.71401 8.19447C8.43555 8.46866 8.21927 8.80066 8.08213 9.16479C7.94717 9.51395 7.85296 9.9123 7.82727 10.4949C7.79941 11.0818 7.79297 11.2682 7.79297 12.7568C7.79297 14.2455 7.79941 14.4318 7.8251 15.0166C7.85078 15.5992 7.94508 15.9997 8.08004 16.3468C8.21927 16.7151 8.43555 17.045 8.71401 17.3192C8.98819 17.5976 9.32019 17.814 9.68432 17.951C10.0335 18.086 10.4318 18.1802 11.0145 18.2059C11.5992 18.2317 11.7856 18.238 13.2743 18.238C14.7629 18.238 14.9492 18.2317 15.534 18.2059C16.1166 18.1802 16.5171 18.086 16.8641 17.951C17.601 17.6661 18.1836 17.0835 18.4685 16.3468C18.6033 15.9976 18.6976 15.5992 18.7233 15.0166C18.749 14.4318 18.7555 14.2455 18.7555 12.7568C18.7555 11.2682 18.7533 11.0818 18.7276 10.4971ZM17.7402 14.9737C17.7166 15.5092 17.6267 15.7984 17.5517 15.9912C17.3675 16.4688 16.9884 16.8479 16.5107 17.0322C16.3179 17.1071 16.0267 17.1971 15.4933 17.2206C14.9149 17.2464 14.7415 17.2527 13.2785 17.2527C11.8156 17.2527 11.6399 17.2464 11.0637 17.2206C10.5282 17.1971 10.2391 17.1071 10.0463 17.0322C9.80857 16.9443 9.5922 16.8051 9.41658 16.623C9.23451 16.4452 9.09529 16.231 9.00743 15.9933C8.93247 15.8006 8.84252 15.5092 8.81901 14.9759C8.79324 14.3976 8.78688 14.2241 8.78688 12.7611C8.78688 11.2981 8.79324 11.1225 8.81901 10.5463C8.84252 10.0109 8.93247 9.7217 9.00743 9.52892C9.09529 9.29113 9.23451 9.07485 9.41876 8.89914C9.59647 8.71708 9.81066 8.57785 10.0485 8.49008C10.2412 8.41511 10.5326 8.32517 11.0659 8.30157C11.6442 8.27588 11.8177 8.26944 13.2806 8.26944C14.7458 8.26944 14.9192 8.27588 15.4954 8.30157C16.0309 8.32517 16.3201 8.41511 16.5129 8.49008C16.7506 8.57785 16.9669 8.71708 17.1426 8.89914C17.3246 9.07694 17.4639 9.29113 17.5517 9.52892C17.6267 9.7217 17.7166 10.013 17.7402 10.5463C17.7659 11.1247 17.7723 11.2981 17.7723 12.7611C17.7723 14.2241 17.7659 14.3954 17.7402 14.9737Z" fill="white"/>
<path d="M13.2756 9.94043C11.7206 9.94043 10.459 11.202 10.459 12.7571C10.459 14.3122 11.7206 15.5737 13.2756 15.5737C14.8307 15.5737 16.0923 14.3122 16.0923 12.7571C16.0923 11.202 14.8307 9.94043 13.2756 9.94043ZM13.2756 14.5842C12.2668 14.5842 11.4485 13.766 11.4485 12.7571C11.4485 11.7482 12.2668 10.93 13.2756 10.93C14.2845 10.93 15.1027 11.7482 15.1027 12.7571C15.1027 13.766 14.2845 14.5842 13.2756 14.5842Z" fill="white"/>
<path d="M16.8621 9.82895C16.8621 10.1921 16.5676 10.4865 16.2044 10.4865C15.8413 10.4865 15.5469 10.1921 15.5469 9.82895C15.5469 9.46574 15.8413 9.17139 16.2044 9.17139C16.5676 9.17139 16.8621 9.46574 16.8621 9.82895Z" fill="white"/>
</g>
<defs>
<clipPath id="clip0_18_509">
<rect width="10.9646" height="10.9646" fill="white" transform="translate(7.77344 7.27344)"/>
</clipPath>
</defs>
</svg>
