<svg width="26" height="26" viewBox="0 0 26 26" fill="none" xmlns="http://www.w3.org/2000/svg">
<rect x="0.0585938" y="0.178711" width="25.1541" height="25.1541" rx="12.5771" fill="#3D12FA"/>
<path fill-rule="evenodd" clip-rule="evenodd" d="M17.935 8.85356C18.5152 9.00975 18.9726 9.46718 19.1288 10.0473C19.4189 11.1072 19.4078 13.3163 19.4078 13.3163C19.4078 13.3163 19.4078 15.5142 19.1288 16.5741C18.9726 17.1543 18.5152 17.6117 17.935 17.7679C16.8751 18.0468 12.6355 18.0468 12.6355 18.0468C12.6355 18.0468 8.40705 18.0468 7.33599 17.7568C6.75583 17.6006 6.2984 17.1431 6.1422 16.563C5.86328 15.5142 5.86328 13.3052 5.86328 13.3052C5.86328 13.3052 5.86328 11.1072 6.1422 10.0473C6.2984 9.46718 6.76699 8.9986 7.33599 8.8424C8.3959 8.56348 12.6355 8.56348 12.6355 8.56348C12.6355 8.56348 16.8751 8.56348 17.935 8.85356ZM14.8111 13.3051L11.2855 15.3357V11.2746L14.8111 13.3051Z" fill="white"/>
</svg>
