<svg width="25" height="26" viewBox="0 0 25 26" fill="none" xmlns="http://www.w3.org/2000/svg">
<rect x="0.298828" y="0.178711" width="24.5091" height="25.1541" rx="12.2546" fill="#3D12FA"/>
<path d="M8.17791 16.9766H10.1173V10.5081H8.17791V16.9766Z" fill="white"/>
<path d="M8.52928 9.41143C8.71159 9.54073 8.92628 9.61043 9.14627 9.61173C9.29355 9.6149 9.43992 9.58691 9.57667 9.52942C9.71341 9.47193 9.83774 9.38612 9.94223 9.27711C10.0467 9.16809 10.1292 9.0381 10.1849 8.89489C10.2405 8.75168 10.2681 8.59817 10.266 8.44352C10.2662 8.21252 10.2012 7.98665 10.0792 7.7944C9.95726 7.60216 9.78379 7.45216 9.58071 7.36333C9.37763 7.27451 9.15404 7.25084 8.93816 7.29531C8.72228 7.33979 8.52379 7.45041 8.36773 7.61323C8.21167 7.77604 8.10504 7.98375 8.0613 8.21013C8.01755 8.43651 8.03866 8.67143 8.12195 8.88523C8.20524 9.09903 8.34698 9.28214 8.52928 9.41143Z" fill="white"/>
<path d="M17.2372 16.9822V12.4611C17.0491 10.8856 15.9966 10.3313 15.0156 10.3313C14.015 10.3313 13.3592 11.0113 13.172 11.4092H13.1469V10.5128H11.2819V16.9822H13.2213V13.4747C13.2213 12.5398 13.7856 12.0845 14.3607 12.0845C14.9054 12.0845 15.3273 12.4062 15.3273 13.4484V16.9822H17.2372Z" fill="white"/>
</svg>
